<svg width="185" height="43" viewBox="0 0 185 43" fill="none" xmlns="http://www.w3.org/2000/svg">
<path d="M5.26172 12.9375V30H1.75781V12.9375H5.26172ZM22.4414 12.9375V30H18.9258L12.0703 18.5625V30H8.55469V12.9375H12.0703L18.9375 24.3867V12.9375H22.4414ZM32.1797 22.5117H27.7969L27.7734 20.0977H31.4531C32.1016 20.0977 32.6328 20.0156 33.0469 19.8516C33.4609 19.6797 33.7695 19.4336 33.9727 19.1133C34.1836 18.7852 34.2891 18.3867 34.2891 17.918C34.2891 17.3867 34.1875 16.957 33.9844 16.6289C33.7891 16.3008 33.4805 16.0625 33.0586 15.9141C32.6445 15.7656 32.1094 15.6914 31.4531 15.6914H29.0156V30H25.5V12.9375H31.4531C32.4453 12.9375 33.332 13.0312 34.1133 13.2188C34.9023 13.4062 35.5703 13.6914 36.1172 14.0742C36.6641 14.457 37.082 14.9414 37.3711 15.5273C37.6602 16.1055 37.8047 16.793 37.8047 17.5898C37.8047 18.293 37.6445 18.9414 37.3242 19.5352C37.0117 20.1289 36.5156 20.6133 35.8359 20.9883C35.1641 21.3633 34.2852 21.5703 33.1992 21.6094L32.1797 22.5117ZM32.0273 30H26.8359L28.207 27.2578H32.0273C32.6445 27.2578 33.1484 27.1602 33.5391 26.9648C33.9297 26.7617 34.2188 26.4883 34.4062 26.1445C34.5938 25.8008 34.6875 25.4062 34.6875 24.9609C34.6875 24.4609 34.6016 24.0273 34.4297 23.6602C34.2656 23.293 34 23.0117 33.6328 22.8164C33.2656 22.6133 32.7812 22.5117 32.1797 22.5117H28.793L28.8164 20.0977H33.0352L33.8438 21.0469C34.8828 21.0312 35.7188 21.2148 36.3516 21.5977C36.9922 21.9727 37.457 22.4609 37.7461 23.0625C38.043 23.6641 38.1914 24.3086 38.1914 24.9961C38.1914 26.0898 37.9531 27.0117 37.4766 27.7617C37 28.5039 36.3008 29.0625 35.3789 29.4375C34.4648 29.8125 33.3477 30 32.0273 30ZM54.8438 21.0703V21.8789C54.8438 23.1758 54.668 24.3398 54.3164 25.3711C53.9648 26.4023 53.4688 27.2812 52.8281 28.0078C52.1875 28.7266 51.4219 29.2773 50.5312 29.6602C49.6484 30.043 48.668 30.2344 47.5898 30.2344C46.5195 30.2344 45.5391 30.043 44.6484 29.6602C43.7656 29.2773 43 28.7266 42.3516 28.0078C41.7031 27.2812 41.1992 26.4023 40.8398 25.3711C40.4883 24.3398 40.3125 23.1758 40.3125 21.8789V21.0703C40.3125 19.7656 40.4883 18.6016 40.8398 17.5781C41.1914 16.5469 41.6875 15.668 42.3281 14.9414C42.9766 14.2148 43.7422 13.6602 44.625 13.2773C45.5156 12.8945 46.4961 12.7031 47.5664 12.7031C48.6445 12.7031 49.625 12.8945 50.5078 13.2773C51.3984 13.6602 52.1641 14.2148 52.8047 14.9414C53.4531 15.668 53.9531 16.5469 54.3047 17.5781C54.6641 18.6016 54.8438 19.7656 54.8438 21.0703ZM51.293 21.8789V21.0469C51.293 20.1406 51.2109 19.3438 51.0469 18.6562C50.8828 17.9688 50.6406 17.3906 50.3203 16.9219C50 16.4531 49.6094 16.1016 49.1484 15.8672C48.6875 15.625 48.1602 15.5039 47.5664 15.5039C46.9727 15.5039 46.4453 15.625 45.9844 15.8672C45.5312 16.1016 45.1445 16.4531 44.8242 16.9219C44.5117 17.3906 44.2734 17.9688 44.1094 18.6562C43.9453 19.3438 43.8633 20.1406 43.8633 21.0469V21.8789C43.8633 22.7773 43.9453 23.5742 44.1094 24.2695C44.2734 24.957 44.5156 25.5391 44.8359 26.0156C45.1562 26.4844 45.5469 26.8398 46.0078 27.082C46.4688 27.3242 46.9961 27.4453 47.5898 27.4453C48.1836 27.4453 48.7109 27.3242 49.1719 27.082C49.6328 26.8398 50.0195 26.4844 50.332 26.0156C50.6445 25.5391 50.8828 24.957 51.0469 24.2695C51.2109 23.5742 51.293 22.7773 51.293 21.8789ZM60.0117 12.9375L63.2227 18.8906L66.4336 12.9375H70.4531L65.4961 21.3984L70.582 30H66.5273L63.2227 23.9297L59.918 30H55.8398L60.9375 21.3984L55.9688 12.9375H60.0117ZM89.7773 27.2578V30H80.6953V27.2578H89.7773ZM81.8438 12.9375V30H78.3281V12.9375H81.8438ZM88.5938 19.8867V22.5586H80.6953V19.8867H88.5938ZM89.7656 12.9375V15.6914H80.6953V12.9375H89.7656ZM100.711 25.5352C100.711 25.2305 100.664 24.957 100.57 24.7148C100.484 24.4648 100.32 24.2383 100.078 24.0352C99.8359 23.8242 99.4961 23.6172 99.0586 23.4141C98.6211 23.2109 98.0547 23 97.3594 22.7812C96.5859 22.5312 95.8516 22.25 95.1562 21.9375C94.4688 21.625 93.8594 21.2617 93.3281 20.8477C92.8047 20.4258 92.3906 19.9375 92.0859 19.3828C91.7891 18.8281 91.6406 18.1836 91.6406 17.4492C91.6406 16.7383 91.7969 16.0938 92.1094 15.5156C92.4219 14.9297 92.8594 14.4297 93.4219 14.0156C93.9844 13.5938 94.6484 13.2695 95.4141 13.043C96.1875 12.8164 97.0352 12.7031 97.957 12.7031C99.2148 12.7031 100.312 12.9297 101.25 13.3828C102.188 13.8359 102.914 14.457 103.43 15.2461C103.953 16.0352 104.215 16.9375 104.215 17.9531H100.723C100.723 17.4531 100.617 17.0156 100.406 16.6406C100.203 16.2578 99.8906 15.957 99.4688 15.7383C99.0547 15.5195 98.5312 15.4102 97.8984 15.4102C97.2891 15.4102 96.7812 15.5039 96.375 15.6914C95.9688 15.8711 95.6641 16.1172 95.4609 16.4297C95.2578 16.7344 95.1562 17.0781 95.1562 17.4609C95.1562 17.75 95.2266 18.0117 95.3672 18.2461C95.5156 18.4805 95.7344 18.6992 96.0234 18.9023C96.3125 19.1055 96.668 19.2969 97.0898 19.4766C97.5117 19.6562 98 19.832 98.5547 20.0039C99.4844 20.2852 100.301 20.6016 101.004 20.9531C101.715 21.3047 102.309 21.6992 102.785 22.1367C103.262 22.5742 103.621 23.0703 103.863 23.625C104.105 24.1797 104.227 24.8086 104.227 25.5117C104.227 26.2539 104.082 26.918 103.793 27.5039C103.504 28.0898 103.086 28.5859 102.539 28.9922C101.992 29.3984 101.34 29.707 100.582 29.918C99.8242 30.1289 98.9766 30.2344 98.0391 30.2344C97.1953 30.2344 96.3633 30.125 95.543 29.9062C94.7227 29.6797 93.9766 29.3398 93.3047 28.8867C92.6406 28.4336 92.1094 27.8555 91.7109 27.1523C91.3125 26.4492 91.1133 25.6172 91.1133 24.6562H94.6406C94.6406 25.1875 94.7227 25.6367 94.8867 26.0039C95.0508 26.3711 95.2812 26.668 95.5781 26.8945C95.8828 27.1211 96.2422 27.2852 96.6562 27.3867C97.0781 27.4883 97.5391 27.5391 98.0391 27.5391C98.6484 27.5391 99.1484 27.4531 99.5391 27.2812C99.9375 27.1094 100.23 26.8711 100.418 26.5664C100.613 26.2617 100.711 25.918 100.711 25.5352ZM114.246 12.9375V30H110.742V12.9375H114.246ZM119.496 12.9375V15.6914H105.574V12.9375H119.496ZM135.188 21.0703V21.8789C135.188 23.1758 135.012 24.3398 134.66 25.3711C134.309 26.4023 133.812 27.2812 133.172 28.0078C132.531 28.7266 131.766 29.2773 130.875 29.6602C129.992 30.043 129.012 30.2344 127.934 30.2344C126.863 30.2344 125.883 30.043 124.992 29.6602C124.109 29.2773 123.344 28.7266 122.695 28.0078C122.047 27.2812 121.543 26.4023 121.184 25.3711C120.832 24.3398 120.656 23.1758 120.656 21.8789V21.0703C120.656 19.7656 120.832 18.6016 121.184 17.5781C121.535 16.5469 122.031 15.668 122.672 14.9414C123.32 14.2148 124.086 13.6602 124.969 13.2773C125.859 12.8945 126.84 12.7031 127.91 12.7031C128.988 12.7031 129.969 12.8945 130.852 13.2773C131.742 13.6602 132.508 14.2148 133.148 14.9414C133.797 15.668 134.297 16.5469 134.648 17.5781C135.008 18.6016 135.188 19.7656 135.188 21.0703ZM131.637 21.8789V21.0469C131.637 20.1406 131.555 19.3438 131.391 18.6562C131.227 17.9688 130.984 17.3906 130.664 16.9219C130.344 16.4531 129.953 16.1016 129.492 15.8672C129.031 15.625 128.504 15.5039 127.91 15.5039C127.316 15.5039 126.789 15.625 126.328 15.8672C125.875 16.1016 125.488 16.4531 125.168 16.9219C124.855 17.3906 124.617 17.9688 124.453 18.6562C124.289 19.3438 124.207 20.1406 124.207 21.0469V21.8789C124.207 22.7773 124.289 23.5742 124.453 24.2695C124.617 24.957 124.859 25.5391 125.18 26.0156C125.5 26.4844 125.891 26.8398 126.352 27.082C126.812 27.3242 127.34 27.4453 127.934 27.4453C128.527 27.4453 129.055 27.3242 129.516 27.082C129.977 26.8398 130.363 26.4844 130.676 26.0156C130.988 25.5391 131.227 24.957 131.391 24.2695C131.555 23.5742 131.637 22.7773 131.637 21.8789ZM146.988 27.4688L151.605 31.125L149.391 33.0469L144.844 29.3906L146.988 27.4688ZM151.723 21.0703V21.8789C151.723 23.1758 151.547 24.3398 151.195 25.3711C150.852 26.4023 150.355 27.2812 149.707 28.0078C149.059 28.7266 148.293 29.2773 147.41 29.6602C146.527 30.043 145.547 30.2344 144.469 30.2344C143.398 30.2344 142.418 30.043 141.527 29.6602C140.637 29.2773 139.867 28.7266 139.219 28.0078C138.57 27.2812 138.066 26.4023 137.707 25.3711C137.355 24.3398 137.18 23.1758 137.18 21.8789V21.0703C137.18 19.7656 137.355 18.6016 137.707 17.5781C138.066 16.5469 138.566 15.668 139.207 14.9414C139.848 14.2148 140.613 13.6602 141.504 13.2773C142.395 12.8945 143.375 12.7031 144.445 12.7031C145.523 12.7031 146.504 12.8945 147.387 13.2773C148.277 13.6602 149.047 14.2148 149.695 14.9414C150.344 15.668 150.844 16.5469 151.195 17.5781C151.547 18.6016 151.723 19.7656 151.723 21.0703ZM148.172 21.8789V21.0469C148.172 20.1406 148.086 19.3438 147.914 18.6562C147.75 17.9688 147.508 17.3906 147.188 16.9219C146.875 16.4531 146.488 16.1016 146.027 15.8672C145.566 15.625 145.039 15.5039 144.445 15.5039C143.852 15.5039 143.324 15.625 142.863 15.8672C142.402 16.1016 142.016 16.4531 141.703 16.9219C141.391 17.3906 141.152 17.9688 140.988 18.6562C140.824 19.3438 140.742 20.1406 140.742 21.0469V21.8789C140.742 22.7773 140.824 23.5742 140.988 24.2695C141.152 24.957 141.391 25.5391 141.703 26.0156C142.023 26.4844 142.414 26.8398 142.875 27.082C143.344 27.3242 143.875 27.4453 144.469 27.4453C145.062 27.4453 145.586 27.3242 146.039 27.082C146.5 26.8398 146.887 26.4844 147.199 26.0156C147.52 25.5391 147.762 24.957 147.926 24.2695C148.09 23.5742 148.172 22.7773 148.172 21.8789ZM163.688 12.9375H167.191V24.2109C167.191 25.5234 166.91 26.6289 166.348 27.5273C165.793 28.4258 165.023 29.1016 164.039 29.5547C163.062 30.0078 161.938 30.2344 160.664 30.2344C159.391 30.2344 158.258 30.0078 157.266 29.5547C156.281 29.1016 155.508 28.4258 154.945 27.5273C154.391 26.6289 154.113 25.5234 154.113 24.2109V12.9375H157.629V24.2109C157.629 24.9766 157.75 25.6016 157.992 26.0859C158.234 26.5703 158.582 26.9258 159.035 27.1523C159.496 27.3789 160.039 27.4922 160.664 27.4922C161.305 27.4922 161.848 27.3789 162.293 27.1523C162.746 26.9258 163.09 26.5703 163.324 26.0859C163.566 25.6016 163.688 24.9766 163.688 24.2109V12.9375ZM181.535 27.2578V30H172.453V27.2578H181.535ZM173.602 12.9375V30H170.086V12.9375H173.602ZM180.352 19.8867V22.5586H172.453V19.8867H180.352ZM181.523 12.9375V15.6914H172.453V12.9375H181.523Z" fill="white"/>
<rect width="183" height="2" fill="#00B4CC"/>
<rect x="2" y="41" width="183" height="2" fill="#00B4CC"/>
</svg>
